<svg width="720" height="280" xmlns="http://www.w3.org/2000/svg" xml:space="preserve" baseProfile="tiny" version="1.2">
 <title>Giellatekno_Logo</title>

 <g>
  <title>Layer 1</title>
  <g id="svg_14">
   <path id="svg_15" d="m449.4601,140.15001l-0.2,-53.8c-19.4,-0.1 -46.6,0.2 -61.4,7.3c-10.7,5.1 -19.8,29 -27.1,48.3c-0.1,0.4 -0.3,0.7 -0.4,1.1l-0.1,0c0,0.1 -0.1,0.3 -0.1,0.4l0.1,0c-6.6,17.4 -13,33.6 -22.3,44c-12.5,13.9 -31.5,31 -51.5,33.3c-7.1,0.8 -39.3,1.9 -49.5,2.2l0,0c-28.1,0.2 -69.3,0.4 -96.5,-0.1c-27,-0.5 -47.5,-8.1 -60.8,-22.6c-10.6,-11.6 -22.7,-34.1 -19.9,-75.6c0.1,-0.8 0.1,-1.5 0.1,-2c1.2,-24.8 21,-64.4 69,-65.4c23.1,-0.5 40.2,4.7 50.9,15.3c10.9,10.8 12.9,25.5 12.7,35.9c-0.2,9.6 -1.9,23 -9.3,33c-8,11 -21.6,16.1 -41.4,15.7c-8,-0.2 -16.4,-5.1 -16.2,-18.6c0.1,-8.1 3.6,-11 7.1,-12.8c4.8,-2.5 10.2,-2.7 10.3,-2.7l-0.1,0c8.6,0 15.6,-7.1 15.6,-15.7c0,-8.7 -7.1,-15.6 -15.7,-15.6c-0.1,0 -0.2,0 -0.3,0c-19.1,0.2 -47.6,12.6 -48.1,46.2c-0.5,28.3 19.7,50 46.9,50.5c1,0 2,0 2.9,0c35.9,-0.1 54.8,-15.5 64.4,-28.6c9.6,-13.1 14.9,-30.8 15.3,-51c0.5,-23.6 -7.1,-43.9 -21.9,-58.7c-17,-16.9 -41.8,-25.1 -73.7,-24.5c-37.7,0.8 -61.1,18.7 -74.2,33.6c-15.1,17.3 -24.4,39.7 -25.4,61.6c0,0.3 -0.1,0.8 -0.1,1.4c-3.6,52.6 13.3,82.8 28.1,98.9c19.4,21.1 47.5,32.1 83.4,32.8c18.6,0.3 104.6,1.2 106.6,1.2l215.1,-0.7c9.2,0 15.9,-9.2 13.4,-18.5l-25.7,-95.8z"/>
   <path id="svg_16" d="m663.6601,58.25001c-19.2,-21.1 -47.1,-32.1 -82.8,-32.9c-22.1,-0.5 -57.2,-0.4 -87.1,-0.2l-65.1,-0.1c-0.8,-0.1 -1.7,-0.2 -2.6,-0.2l-35.9,0.1l-7.8,0l0,0l-106.4,0.4c-9.4,0 -17.1,7.7 -17,17.1l0.3,98.3l-14.2,52.9c15.7,-0.5 34,-1.3 38.1,-1.7c8.3,-0.9 20.7,-9.8 33.2,-23.8c4.4,-4.9 8.6,-14.3 12.8,-24.7l0.2,0c0,-0.1 0.1,-0.3 0.2,-0.4l-0.2,0c1.5,-3.8 3,-7.6 4.5,-11.5c10.1,-26.5 20.6,-53.9 41.7,-64c20.6,-9.9 67.9,-10.6 67.9,-10.6c20.9,-0.2 98.7,-1.1 137,-0.3c26.8,0.6 47.1,8.2 60.3,22.7c10.5,11.5 22.4,33.9 19.4,75.1c-0.1,0.8 -0.1,1.5 -0.1,2c-1.3,24.5 -21.1,63.8 -68.7,64.6c-22.9,0.4 -39.9,-4.8 -50.4,-15.4c-10.7,-10.8 -12.7,-25.3 -12.4,-35.6c1,-44.2 29.3,-48.6 50.4,-48.1c7.9,0.2 16.1,5.1 15.9,18.5c-0.2,8 -3.6,10.8 -7,12.6c-4.8,2.5 -10.1,2.6 -10.2,2.6l0.2,0l0,0c-8.4,0.3 -15.1,7.2 -15.1,15.7c0,8.4 6.7,15.3 15,15.6l0,0l0.2,0c0,0 0.1,0 0.1,0c0.1,0 0.2,0 0.4,0c0.3,0 0.5,0 0.8,0c19,-0.6 46.2,-13 46.9,-45.8c0.6,-28.1 -19.4,-49.8 -46.5,-50.4c-37.6,-0.9 -57.2,14.8 -67,28.1c-9.6,13 -15,30.5 -15.4,50.6c-0.5,23.5 6.9,43.7 21.5,58.4c16.4,16.5 40.2,24.8 70.8,24.7c0.8,0 1.6,0 2.4,0c37.5,-0.7 60.9,-18.4 73.9,-33.1c15.1,-17.1 24.4,-39.4 25.5,-61.2c0,-0.3 0.1,-0.8 0.1,-1.4c3.5,-52.5 -13.2,-82.6 -27.8,-98.6z"/>
  </g>
 </g>
</svg>